<svg xmlns="http://www.w3.org/2000/svg" viewBox="0 0 1440 810" preserveAspectRatio="xMinYMin slice"><path fill="#efefee" d="M592.66 0c-15 64.092-30.7 125.285-46.598 183.777C634.056 325.56 748.348 550.932 819.642 809.5h419.672C1184.518 593.727 1083.124 290.064 902.637 0H592.66z"/><path fill="#f6f6f6" d="M545.962 183.777c-53.796 196.576-111.592 361.156-163.49 490.74 11.7 44.494 22.8 89.49 33.1 134.883h404.07c-71.294-258.468-185.586-483.84-273.68-625.623z"/><path fill="#f7f7f7" d="M153.89 0c74.094 180.678 161.088 417.448 228.483 674.517C449.67 506.337 527.063 279.465 592.56 0H153.89z"/><path fill="#fbfbfc" d="M153.89 0H0v809.5h415.57C345.477 500.938 240.884 211.874 153.89 0z"/><path fill="#ebebec" d="M1144.22 501.538c52.596-134.583 101.492-290.964 134.09-463.343 1.2-6.1 2.3-12.298 3.4-18.497 0-.2.1-.4.1-.6 1.1-6.3 2.3-12.7 3.4-19.098H902.536c105.293 169.28 183.688 343.158 241.684 501.638v-.1z"/><path fill="#e1e1e1" d="M1285.31 0a2161.05 2161.05 0 0 1-6.9 38.195C1321.507 86.39 1379.603 158.98 1440 257.168V0h-154.69z"/><path fill="#e7e7e7" d="M1278.31 38.196c-32.5 171.678-81.09 327.36-133.49 461.642v3.8c41 112.286 71.59 216.573 94.29 305.962l200.59.4V256.768c-60.3-97.988-118.29-170.48-161.39-218.573v.001z"/></svg>